<?xml version="1.0" standalone="no"?>
<!DOCTYPE svg PUBLIC "-//W3C//DTD SVG 20010904//EN"
 "http://www.w3.org/TR/2001/REC-SVG-20010904/DTD/svg10.dtd">
<svg version="1.0" xmlns="http://www.w3.org/2000/svg"
 width="1080.000000pt" height="1080.000000pt" viewBox="0 0 1080.000000 1080.000000"
 preserveAspectRatio="xMidYMid meet">

<g transform="translate(0.000000,1080.000000) scale(0.100000,-0.100000)"
fill="#000000" stroke="none">
<path d="M4610 5380 l0 -460 790 0 790 0 0 460 0 460 -790 0 -790 0 0 -460z
m1560 0 l0 -440 -770 0 -770 0 0 440 0 440 770 0 770 0 0 -440z"/>
<path d="M4847 5613 c-4 -3 -7 -33 -7 -65 l0 -58 55 0 55 0 0 -168 c0 -117 4
-172 12 -180 16 -16 110 -16 126 0 8 8 12 63 12 180 l0 168 110 0 110 0 0
-168 c0 -117 4 -172 12 -180 7 -7 35 -12 63 -12 28 0 56 5 63 12 8 8 12 63 12
180 l0 168 54 0 c62 0 65 4 57 75 l-6 50 -361 2 c-198 2 -364 0 -367 -4z"/>
<path d="M5635 5611 l-30 -6 0 -235 0 -235 59 -3 c41 -2 62 1 67 10 5 7 9 43
9 81 l0 67 38 0 c50 1 112 30 146 71 26 30 28 38 24 102 -4 65 -6 71 -40 102
-20 19 -53 38 -75 44 -41 12 -149 13 -198 2z m168 -133 c17 -26 -7 -68 -38
-68 -23 0 -25 4 -25 46 0 43 1 45 26 42 15 -2 32 -11 37 -20z"/>
</g>
</svg>
